<?xml version="1.0" encoding="UTF-8" standalone="no"?>
<svg width="975px" height="240px" viewBox="0 0 975 240" version="1.1" xmlns="http://www.w3.org/2000/svg" xmlns:xlink="http://www.w3.org/1999/xlink" xmlns:sketch="http://www.bohemiancoding.com/sketch/ns">
    <!-- Generator: Sketch 3.3.2 (12043) - http://www.bohemiancoding.com/sketch -->
    <title>BlackLogo</title>
    <desc>Created with Sketch.</desc>
    <defs></defs>
    <g id="Brand" stroke="none" stroke-width="1" fill="none" fill-rule="evenodd" sketch:type="MSPage">
        <g id="BlackLogo" sketch:type="MSArtboardGroup" fill="#343126">
            <g id="Black-Dot-+-Black-Wordmark" sketch:type="MSLayerGroup" transform="translate(10.000000, 10.000000)">
                <ellipse id="Black-Dot" sketch:type="MSShapeGroup" cx="81.5729167" cy="137.372727" rx="81.5729167" ry="81.6272727"></ellipse>
                <path d="M294.291208,215.018182 L363.488917,215.018182 C401.474042,215.018182 434.158917,194.687018 434.158917,154.614 C434.158917,133.398873 422.086125,116.014255 402.651875,107.763927 C417.66925,99.5136 427.386375,82.1289818 427.386375,63.2710909 C427.386375,29.9751273 400.590667,8.76 359.660958,8.76 L294.291208,8.76 L294.291208,215.018182 Z M335.809833,92.1472364 L335.809833,44.7078545 L358.777583,44.7078545 C374.383875,44.7078545 384.984375,53.8421455 384.984375,67.9855636 C384.984375,82.4236364 373.794958,92.1472364 359.3665,92.1472364 L335.809833,92.1472364 Z M335.809833,179.364982 L335.809833,125.737855 L361.13325,125.737855 C377.917375,125.737855 391.168,135.1668 391.168,152.256764 C391.168,169.052073 377.917375,179.364982 361.13325,179.364982 L335.809833,179.364982 Z M454.91425,215.018182 L495.5495,215.018182 L495.5495,1.98294545 L454.91425,1.98294545 L454.91425,215.018182 Z M514.832542,167.284145 C514.832542,199.696145 541.333792,218.848691 572.546375,218.848691 C590.213875,218.848691 601.992208,213.544909 609.942583,204.999927 L612.592708,215.018182 L648.516625,215.018182 L648.516625,117.487527 C648.516625,83.0129455 633.793708,57.0833455 584.324708,57.0833455 C560.768042,57.0833455 537.505833,65.9229818 523.666292,75.3519273 L538.978125,103.049455 C550.462,97.1563636 564.596,92.1472364 579.907833,92.1472364 C597.869792,92.1472364 607.881375,101.281527 607.881375,114.835636 L607.881375,124.853891 C602.286667,121.023382 590.213875,116.308909 574.607583,116.308909 C538.683667,116.308909 514.832542,136.934727 514.832542,167.284145 L514.832542,167.284145 Z M555.467792,166.105527 C555.467792,153.435382 566.36275,144.595745 581.969042,144.595745 C597.575333,144.595745 608.76475,152.551418 608.76475,166.105527 C608.76475,179.070327 597.575333,187.320655 582.2635,187.320655 C566.951667,187.320655 555.467792,178.775673 555.467792,166.105527 L555.467792,166.105527 Z M750.542458,182.900836 C724.924583,182.900836 706.668167,164.3376 706.668167,138.113345 C706.668167,113.362364 722.863375,93.0312 749.070167,93.0312 C766.443208,93.0312 778.221542,101.576182 784.994083,107.763927 L796.477958,73.584 C786.466375,65.9229818 770.565625,57.0833455 747.892333,57.0833455 C701.073458,57.0833455 666.032917,91.5579273 666.032917,138.408 C666.032917,185.258073 700.190083,218.848691 748.186792,218.848691 C770.565625,218.848691 787.34975,209.419745 796.1835,202.348036 L785.288542,169.052073 C778.516,174.650509 766.14875,182.900836 750.542458,182.900836 L750.542458,182.900836 Z M814.877625,215.018182 L855.512875,215.018182 L855.512875,135.461455 L907.043083,215.018182 L954.745333,215.018182 L896.442583,130.746982 L950.622917,60.9138545 L904.981875,60.9138545 L855.512875,125.737855 L855.512875,1.98294545 L814.877625,1.98294545 L814.877625,215.018182 Z" id="Black-Wordmark" sketch:type="MSShapeGroup"></path>
            </g>
        </g>
    </g>
</svg>