<?xml version="1.0" encoding="UTF-8" standalone="no"?>
<svg width="163px" height="43px" viewBox="0 0 163 43" version="1.1" xmlns="http://www.w3.org/2000/svg" xmlns:xlink="http://www.w3.org/1999/xlink">
    <!-- Generator: Sketch 3.6.1 (26313) - http://www.bohemiancoding.com/sketch -->
    <title>wrdmk-7deg-lod</title>
    <desc>Created with Sketch.</desc>
    <defs></defs>
    <g id="Page-1" stroke="none" stroke-width="1" fill="none" fill-rule="evenodd">
        <g id="wrdmk-7deg-lod" fill="#FFFFFF">
            <g id="SimpleCalc">
                <path d="M12.1826,23.0353 L10.4086,25.1863 C9.2896,23.9043 8.1156,23.3373 6.8846,23.4843 C5.9956,23.5913 5.2906,23.9543 4.7726,24.5743 C4.2526,25.1943 4.0436,25.9183 4.1436,26.7473 C4.2226,27.4103 4.4926,27.9583 4.9516,28.3903 C5.1786,28.5933 5.5026,28.8153 5.9266,29.0563 C6.3496,29.2983 6.8736,29.5583 7.5006,29.8373 C9.3586,30.6413 10.6296,31.4183 11.3126,32.1683 C12.0046,32.9263 12.4316,33.9773 12.5926,35.3213 C12.8026,37.0663 12.3966,38.5493 11.3736,39.7693 C10.3696,40.9873 8.9376,41.7083 7.0786,41.9313 C5.5776,42.1103 4.2696,41.9403 3.1536,41.4193 C2.5906,41.1593 2.0516,40.7973 1.5366,40.3313 C1.0196,39.8673 0.5076,39.2883 -0.0004,38.5973 L2.0926,36.7793 C2.8426,37.7963 3.5396,38.4733 4.1816,38.8133 C4.8246,39.1513 5.6216,39.2643 6.5736,39.1503 C7.6276,39.0233 8.4216,38.6453 8.9536,38.0153 C9.4836,37.3853 9.6876,36.5553 9.5636,35.5253 C9.4786,34.8183 9.1896,34.2463 8.6946,33.8103 C8.4456,33.5833 8.0866,33.3393 7.6176,33.0763 C7.1476,32.8143 6.5576,32.5263 5.8466,32.2133 C4.2206,31.4963 3.0576,30.7683 2.3586,30.0293 C1.6856,29.2863 1.2756,28.3043 1.1286,27.0823 C0.9336,25.4503 1.3376,24.0303 2.3446,22.8203 C3.3486,21.6023 4.7146,20.8893 6.4436,20.6823 C7.5686,20.5483 8.5556,20.6593 9.4046,21.0183 C10.2706,21.3743 11.1966,22.0473 12.1826,23.0353" id="Fill-24"></path>
                <path d="M20.4795,20.735 L20.4255,38.206 L17.8725,38.512 L17.9255,21.041 L20.4795,20.735 Z" id="Fill-27"></path>
                <path d="M42.6602,15.9445 L46.3362,34.6195 L43.9052,34.9105 L41.8202,24.0305 L36.6122,37.0065 L31.4612,25.2735 L29.3432,36.6565 L26.7332,36.9695 L30.4772,17.8235 L36.5242,31.3735 L42.6602,15.9445 Z" id="Fill-29"></path>
                <path d="M55.0566,18.0387 L55.0376,23.7307 L56.6996,23.5317 C57.7466,23.4057 58.5196,23.0397 59.0166,22.4337 C59.5126,21.8277 59.7006,21.0147 59.5776,19.9967 C59.3806,18.3537 58.2346,17.6577 56.1376,17.9097 L55.0566,18.0387 Z M52.5196,15.9337 L56.0086,15.5157 C57.5256,15.3337 58.7116,15.4477 59.5686,15.8577 C60.2716,16.1877 60.8526,16.7037 61.3146,17.4017 C61.7786,18.1227 62.0606,18.9077 62.1616,19.7547 C62.3096,20.9887 62.0946,22.1157 61.5156,23.1357 C60.6566,24.6477 59.1226,25.5377 56.9146,25.8017 L55.0306,26.0277 L55.0066,33.0997 L52.4536,33.4057 L52.5196,15.9337 Z" id="Fill-31"></path>
                <path d="M70.6348,13.2819 L70.5978,28.3419 L75.4698,27.7579 L75.4648,30.1669 L68.0388,31.0579 L68.0928,13.5869 L70.6348,13.2819 Z" id="Fill-33"></path>
                <path d="M90.6436,10.5231 L90.6386,12.9331 L84.3166,13.6911 L84.3046,18.2171 L90.6266,17.4591 L90.6236,19.6991 L84.3016,20.4571 L84.2836,26.3411 L90.6056,25.5831 L90.5896,27.9941 L81.7246,29.0571 L81.7796,11.5861 L90.6436,10.5231 Z" id="Fill-35"></path>
                <path d="M111.9199,7.2951 L111.9059,10.6161 C109.9389,9.0461 107.7419,8.4061 105.3159,8.6971 C103.1779,8.9541 101.5409,9.9201 100.4049,11.5971 C99.2599,13.2661 98.8329,15.3131 99.1239,17.7381 C99.3959,20.0071 100.2449,21.7031 101.6719,22.8241 C103.0889,23.9381 104.9539,24.3561 107.2669,24.0781 C109.1949,23.8471 110.8259,23.0501 112.1579,21.6871 L112.1509,25.2851 C110.3759,26.1971 108.6849,26.7501 107.0789,26.9421 C104.1469,27.2941 101.6749,26.6481 99.6629,25.0031 C97.6529,23.3771 96.4649,21.0321 96.0979,17.9691 C95.7229,14.8451 96.3629,12.1391 98.0189,9.8511 C99.6829,7.5631 101.9589,6.2451 104.8479,5.8991 C107.1249,5.6261 109.4819,6.0911 111.9199,7.2951" id="Fill-37"></path>
                <path d="M123.123,16.7878 L127.985,16.2048 L125.4,10.3058 L123.123,16.7878 Z M122.284,19.1278 L120.673,23.4278 L117.896,23.7608 L125.208,4.1758 L133.362,21.9058 L130.697,22.2258 L128.963,18.3278 L122.284,19.1278 Z" id="Fill-39"></path>
                <path d="M140.8281,3.0666 L140.7901,18.1266 L145.6631,17.5426 L145.6581,19.9526 L138.2311,20.8426 L138.2861,3.3716 L140.8281,3.0666 Z" id="Fill-41"></path>
                <path d="M162.5635,1.5422 L162.5515,4.3712 C160.8765,3.0342 159.0045,2.4892 156.9375,2.7372 C155.1165,2.9552 153.7215,3.7782 152.7545,5.2072 C151.7785,6.6282 151.4155,8.3722 151.6635,10.4382 C151.8945,12.3722 152.6185,13.8152 153.8345,14.7712 C155.0415,15.7192 156.6295,16.0752 158.5995,15.8392 C160.2425,15.6422 161.6305,14.9622 162.7665,13.8012 L162.7605,16.8672 C161.2485,17.6442 159.8065,18.1152 158.4395,18.2792 C155.9415,18.5792 153.8355,18.0272 152.1225,16.6272 C150.4105,15.2422 149.3975,13.2442 149.0845,10.6352 C148.7655,7.9742 149.3115,5.6682 150.7215,3.7202 C152.1395,1.7702 154.0785,0.6472 156.5395,0.3532 C158.4785,0.1202 160.4875,0.5172 162.5635,1.5422" id="Fill-43"></path>
            </g>
        </g>
    </g>
</svg>